<mxfile host="app.diagrams.net" modified="2022-06-06T11:39:35.330Z" agent="5.0 (X11; Linux x86_64) AppleWebKit/537.36 (KHTML, like Gecko) Chrome/102.0.0.0 Safari/537.36" etag="CiKxq8W2-dGoPb8PGCRd" version="19.0.0" type="github">
  <diagram id="3_pb40XG1DlqBYCzrZSz" name="Page-1">
    <mxGraphModel dx="2545" dy="845" grid="1" gridSize="10" guides="1" tooltips="1" connect="1" arrows="1" fold="1" page="1" pageScale="1" pageWidth="827" pageHeight="1169" math="0" shadow="0">
      <root>
        <mxCell id="0" />
        <mxCell id="1" parent="0" />
        <mxCell id="qr3BdLtm2voskBhRaQ91-1" value="&lt;font style=&quot;font-size: 48px;&quot;&gt;viewer&lt;/font&gt;" style="rounded=0;whiteSpace=wrap;html=1;" vertex="1" parent="1">
          <mxGeometry x="-230" y="30" width="220" height="150" as="geometry" />
        </mxCell>
        <mxCell id="qr3BdLtm2voskBhRaQ91-2" value="html" style="rounded=0;whiteSpace=wrap;html=1;fontSize=48;" vertex="1" parent="1">
          <mxGeometry x="160" y="30" width="330" height="150" as="geometry" />
        </mxCell>
        <mxCell id="qr3BdLtm2voskBhRaQ91-3" value="" style="endArrow=classic;html=1;rounded=0;fontSize=48;exitX=1;exitY=0.5;exitDx=0;exitDy=0;entryX=0;entryY=0.5;entryDx=0;entryDy=0;" edge="1" parent="1" source="qr3BdLtm2voskBhRaQ91-1" target="qr3BdLtm2voskBhRaQ91-2">
          <mxGeometry width="50" height="50" relative="1" as="geometry">
            <mxPoint x="390" y="440" as="sourcePoint" />
            <mxPoint x="440" y="390" as="targetPoint" />
          </mxGeometry>
        </mxCell>
        <mxCell id="qr3BdLtm2voskBhRaQ91-4" value="" style="rounded=0;whiteSpace=wrap;html=1;fontSize=48;" vertex="1" parent="1">
          <mxGeometry x="-320" y="330" width="690" height="410" as="geometry" />
        </mxCell>
        <mxCell id="qr3BdLtm2voskBhRaQ91-5" value="" style="endArrow=classic;html=1;rounded=0;fontSize=48;exitX=0.5;exitY=0;exitDx=0;exitDy=0;entryX=0.5;entryY=1;entryDx=0;entryDy=0;" edge="1" parent="1" source="qr3BdLtm2voskBhRaQ91-4" target="qr3BdLtm2voskBhRaQ91-1">
          <mxGeometry width="50" height="50" relative="1" as="geometry">
            <mxPoint x="150" y="380" as="sourcePoint" />
            <mxPoint x="200" y="330" as="targetPoint" />
          </mxGeometry>
        </mxCell>
        <mxCell id="qr3BdLtm2voskBhRaQ91-6" value="Models:" style="text;html=1;strokeColor=none;fillColor=none;align=center;verticalAlign=middle;whiteSpace=wrap;rounded=0;fontSize=48;" vertex="1" parent="1">
          <mxGeometry x="-230" y="350" width="60" height="30" as="geometry" />
        </mxCell>
        <mxCell id="qr3BdLtm2voskBhRaQ91-9" value="DBManagement" style="rounded=0;whiteSpace=wrap;html=1;fontSize=48;" vertex="1" parent="1">
          <mxGeometry x="-280" y="410" width="550" height="140" as="geometry" />
        </mxCell>
      </root>
    </mxGraphModel>
  </diagram>
</mxfile>
